<?xml version="1.0" encoding="utf-8"?>
<!-- Generator: Adobe Illustrator 22.0.1, SVG Export Plug-In . SVG Version: 6.00 Build 0)  -->
<svg version="1.1" id="_x31_" xmlns="http://www.w3.org/2000/svg" xmlns:xlink="http://www.w3.org/1999/xlink" x="0px" y="0px"
	 viewBox="0 0 318.3 59" style="enable-background:new 0 0 318.3 59;" xml:space="preserve">
<style type="text/css">
	.st0{fill-rule:evenodd;clip-rule:evenodd;fill:#FFF01F;}
	.st1{fill-rule:evenodd;clip-rule:evenodd;fill:#F1563F;}
	.st2{fill-rule:evenodd;clip-rule:evenodd;fill:#3193D1;}
	.st3{fill-rule:evenodd;clip-rule:evenodd;fill:#0A2B43;}
</style>
<g>
	<path class="st0" d="M72.8,12.8V35c0,7,5.7,12.6,12.6,12.6h31.9c0.8,6.3,6.1,11.1,12.5,11.1c7,0,12.6-5.7,12.6-12.6
		c0-7-5.7-12.6-12.6-12.6c-5.3,0-9.6-4.3-9.6-9.6V12.8c0-7-5.7-12.6-12.6-12.6c-4.8,0-9,2.7-11.1,6.6c-2.1-3.9-6.3-6.6-11.1-6.6
		C78.5,0.1,72.8,5.8,72.8,12.8L72.8,12.8z M129.8,44.4c1,0,1.8,0.8,1.8,1.8c0,1-0.8,1.8-1.8,1.8c-1,0-1.8-0.8-1.8-1.8
		C128.1,45.2,128.9,44.4,129.8,44.4L129.8,44.4z M85.4,11c1,0,1.8,0.8,1.8,1.8c0,1-0.8,1.8-1.8,1.8c-1,0-1.8-0.8-1.8-1.8
		C83.7,11.8,84.5,11,85.4,11L85.4,11z M107.6,11c1,0,1.8,0.8,1.8,1.8c0,1-0.8,1.8-1.8,1.8c-1,0-1.8-0.8-1.8-1.8
		C105.9,11.8,106.7,11,107.6,11L107.6,11z M107.6,33.3c1,0,1.8,0.8,1.8,1.8c0,1-0.8,1.8-1.8,1.8c-1,0-1.8-0.8-1.8-1.8
		C105.9,34.1,106.7,33.3,107.6,33.3L107.6,33.3z M85.4,33.3c1,0,1.8,0.8,1.8,1.8c0,1-0.8,1.8-1.8,1.8c-1,0-1.8-0.8-1.8-1.8
		C83.7,34.1,84.5,33.3,85.4,33.3z"/>
	<path class="st1" d="M145.6,35c0-5.3-4.3-9.6-9.6-9.6c-7,0-12.6-5.7-12.6-12.6c0-7,5.7-12.6,12.6-12.6h44.4c7,0,12.6,5.7,12.6,12.6
		c0,7-5.7,12.6-12.6,12.6c-5.3,0-9.6,4.3-9.6,9.6c0,7-5.7,12.6-12.6,12.6C151.2,47.6,145.6,42,145.6,35L145.6,35z M180.4,11
		c-1,0-1.8,0.8-1.8,1.8c0,1,0.8,1.8,1.8,1.8c1,0,1.8-0.8,1.8-1.8C182.2,11.8,181.4,11,180.4,11L180.4,11z M158.2,33.3
		c-1,0-1.8,0.8-1.8,1.8c0,1,0.8,1.8,1.8,1.8c1,0,1.8-0.8,1.8-1.8C160,34.1,159.2,33.3,158.2,33.3L158.2,33.3z M136,11
		c-1,0-1.8,0.8-1.8,1.8c0,1,0.8,1.8,1.8,1.8c1,0,1.8-0.8,1.8-1.8C137.8,11.8,137,11,136,11z"/>
	<path class="st2" d="M69.7,35c0,7-5.7,12.6-12.6,12.6H12.7C5.7,47.6,0,42,0,35V12.8c0-7,5.7-12.6,12.6-12.6c4.8,0,9,2.7,11.1,6.6
		c2.1-3.9,6.3-6.6,11.1-6.6c4.8,0,9,2.7,11.1,6.6c2.1-3.9,6.3-6.6,11.1-6.6c7,0,12.6,5.7,12.6,12.6V35L69.7,35z M12.7,11
		c-1,0-1.8,0.8-1.8,1.8c0,1,0.8,1.8,1.8,1.8c1,0,1.8-0.8,1.8-1.8C14.4,11.8,13.7,11,12.7,11L12.7,11z M57.1,33.3
		c-1,0-1.8,0.8-1.8,1.8c0,1,0.8,1.8,1.8,1.8c1,0,1.8-0.8,1.8-1.8C58.9,34.1,58.1,33.3,57.1,33.3L57.1,33.3z M34.9,33.3
		c-1,0-1.8,0.8-1.8,1.8c0,1,0.8,1.8,1.8,1.8c1,0,1.8-0.8,1.8-1.8C36.6,34.1,35.9,33.3,34.9,33.3L34.9,33.3z M12.7,33.3
		c-1,0-1.8,0.8-1.8,1.8c0,1,0.8,1.8,1.8,1.8c1,0,1.8-0.8,1.8-1.8C14.4,34.1,13.7,33.3,12.7,33.3L12.7,33.3z M57.1,11
		c-1,0-1.8,0.8-1.8,1.8c0,1,0.8,1.8,1.8,1.8c1,0,1.8-0.8,1.8-1.8C58.9,11.8,58.1,11,57.1,11L57.1,11z M34.9,11c-1,0-1.8,0.8-1.8,1.8
		c0,1,0.8,1.8,1.8,1.8c1,0,1.8-0.8,1.8-1.8C36.6,11.8,35.9,11,34.9,11z"/>
	<path class="st3" d="M25.3,12.8v22.3c0,0.9-0.7,1.5-1.5,1.5c-0.9,0-1.5-0.7-1.5-1.5V12.8c0-5.3-4.3-9.6-9.6-9.6
		c-5.3,0-9.6,4.3-9.6,9.6v22.3v0c0,5.3,4.3,9.6,9.6,9.6h44.4c5.3,0,9.6-4.3,9.6-9.6v0V12.8c0-5.3-4.3-9.6-9.6-9.6
		c-5.3,0-9.6,4.3-9.6,9.6v22.3c0,0.9-0.7,1.5-1.5,1.5c-0.9,0-1.5-0.7-1.5-1.5V12.8c0-5.3-4.3-9.6-9.6-9.6
		C29.6,3.2,25.3,7.5,25.3,12.8L25.3,12.8z M117.2,12.8V24c0,7,5.7,12.7,12.6,12.7c5.3,0,9.6,4.3,9.6,9.6c0,5.3-4.3,9.6-9.6,9.6
		c-5.3,0-9.6-4.3-9.6-9.6v-1.5H85.4c-5.3,0-9.6-4.3-9.6-9.6v0V12.8c0-5.3,4.3-9.6,9.6-9.6c5.3,0,9.6,4.3,9.6,9.6v22.3
		c0,0.9,0.7,1.5,1.5,1.5c0.9,0,1.5-0.7,1.5-1.5V12.8c0-5.3,4.3-9.6,9.6-9.6C112.9,3.2,117.2,7.5,117.2,12.8L117.2,12.8z M120.3,24
		V12.8c0-7-5.7-12.7-12.6-12.7c-4.8,0-9,2.7-11.1,6.6c-2.1-3.9-6.3-6.6-11.1-6.6c-7,0-12.6,5.7-12.6,12.7v22.3v0
		c0,7,5.7,12.7,12.6,12.7h31.9c0.8,6.3,6.1,11.1,12.5,11.1c7,0,12.6-5.7,12.6-12.7c0-7-5.7-12.7-12.6-12.7
		C124.6,33.5,120.3,29.3,120.3,24L120.3,24z M129.8,41.4c-2.7,0-4.9,2.2-4.9,4.9s2.2,4.9,4.9,4.9c2.7,0,4.9-2.2,4.9-4.9
		S132.5,41.4,129.8,41.4L129.8,41.4z M129.8,44.4c-1,0-1.8,0.8-1.8,1.8c0,1,0.8,1.8,1.8,1.8c1,0,1.8-0.8,1.8-1.8
		C131.6,45.2,130.8,44.4,129.8,44.4L129.8,44.4z M107.6,30.2c-2.7,0-4.9,2.2-4.9,4.9c0,2.7,2.2,4.9,4.9,4.9c2.7,0,4.9-2.2,4.9-4.9
		C112.5,32.4,110.3,30.2,107.6,30.2L107.6,30.2z M107.6,33.3c-1,0-1.8,0.8-1.8,1.8c0,1,0.8,1.8,1.8,1.8c1,0,1.8-0.8,1.8-1.8
		C109.4,34.1,108.6,33.3,107.6,33.3L107.6,33.3z M107.6,7.9c-2.7,0-4.9,2.2-4.9,4.9c0,2.7,2.2,4.9,4.9,4.9c2.7,0,4.9-2.2,4.9-4.9
		C112.5,10.1,110.3,7.9,107.6,7.9L107.6,7.9z M107.6,11c-1,0-1.8,0.8-1.8,1.8c0,1,0.8,1.8,1.8,1.8c1,0,1.8-0.8,1.8-1.8
		C109.4,11.8,108.6,11,107.6,11L107.6,11z M85.4,30.2c-2.7,0-4.9,2.2-4.9,4.9c0,2.7,2.2,4.9,4.9,4.9c2.7,0,4.9-2.2,4.9-4.9
		C90.3,32.4,88.1,30.2,85.4,30.2L85.4,30.2z M85.4,33.3c-1,0-1.8,0.8-1.8,1.8c0,1,0.8,1.8,1.8,1.8c1,0,1.8-0.8,1.8-1.8
		C87.2,34.1,86.4,33.3,85.4,33.3L85.4,33.3z M85.4,7.9c-2.7,0-4.9,2.2-4.9,4.9c0,2.7,2.2,4.9,4.9,4.9c2.7,0,4.9-2.2,4.9-4.9
		C90.3,10.1,88.1,7.9,85.4,7.9L85.4,7.9z M85.4,11c-1,0-1.8,0.8-1.8,1.8c0,1,0.8,1.8,1.8,1.8c1,0,1.8-0.8,1.8-1.8
		C87.2,11.8,86.4,11,85.4,11L85.4,11z M145.6,35.1c0,7,5.7,12.7,12.6,12.7c7,0,12.6-5.7,12.6-12.7c0-5.3,4.3-9.6,9.6-9.6
		c7,0,12.6-5.7,12.6-12.7c0-7-5.7-12.7-12.6-12.7H136c-7,0-12.6,5.7-12.6,12.7c0,7,5.7,12.7,12.6,12.7
		C141.3,25.5,145.6,29.8,145.6,35.1L145.6,35.1z M136,22.4c7,0,12.6,5.7,12.6,12.7c0,5.3,4.3,9.6,9.6,9.6c5.3,0,9.6-4.3,9.6-9.6
		c0-3.8,1.7-7.3,4.4-9.6h-13.9H158c-0.9,0-1.5-0.7-1.5-1.5s0.7-1.5,1.5-1.5h0.2h22.2c5.3,0,9.6-4.3,9.6-9.6c0-5.3-4.3-9.6-9.6-9.6
		H136c-5.3,0-9.6,4.3-9.6,9.6C126.4,18.1,130.7,22.4,136,22.4L136,22.4z M180.4,7.9c2.7,0,4.9,2.2,4.9,4.9c0,2.7-2.2,4.9-4.9,4.9
		c-2.7,0-4.9-2.2-4.9-4.9C175.5,10.1,177.7,7.9,180.4,7.9L180.4,7.9z M180.4,11c1,0,1.8,0.8,1.8,1.8c0,1-0.8,1.8-1.8,1.8
		c-1,0-1.8-0.8-1.8-1.8C178.6,11.8,179.4,11,180.4,11L180.4,11z M158.2,30.2c2.7,0,4.9,2.2,4.9,4.9s-2.2,4.9-4.9,4.9
		c-2.7,0-4.9-2.2-4.9-4.9S155.5,30.2,158.2,30.2L158.2,30.2z M158.2,33.3c1,0,1.8,0.8,1.8,1.8c0,1-0.8,1.8-1.8,1.8
		c-1,0-1.8-0.8-1.8-1.8C156.4,34.1,157.2,33.3,158.2,33.3L158.2,33.3z M136,7.9c-2.7,0-4.9,2.2-4.9,4.9c0,2.7,2.2,4.9,4.9,4.9
		s4.9-2.2,4.9-4.9C140.9,10.1,138.7,7.9,136,7.9L136,7.9z M136,11c-1,0-1.8,0.8-1.8,1.8c0,1,0.8,1.8,1.8,1.8c1,0,1.8-0.8,1.8-1.8
		C137.8,11.8,137,11,136,11L136,11z M69.7,35.1L69.7,35.1c0,7-5.7,12.7-12.6,12.7H12.7C5.7,47.8,0,42.1,0,35.1v0V12.8
		c0-7,5.7-12.7,12.6-12.7c4.8,0,9,2.7,11.1,6.6c2.1-3.9,6.3-6.6,11.1-6.6c4.8,0,9,2.7,11.1,6.6c2.1-3.9,6.3-6.6,11.1-6.6
		c7,0,12.6,5.7,12.6,12.7V35.1L69.7,35.1z M57.1,30.2c2.7,0,4.9,2.2,4.9,4.9c0,2.7-2.2,4.9-4.9,4.9s-4.9-2.2-4.9-4.9
		C52.2,32.4,54.4,30.2,57.1,30.2L57.1,30.2z M57.1,33.3c1,0,1.8,0.8,1.8,1.8c0,1-0.8,1.8-1.8,1.8c-1,0-1.8-0.8-1.8-1.8
		C55.3,34.1,56.1,33.3,57.1,33.3L57.1,33.3z M57.1,7.9c2.7,0,4.9,2.2,4.9,4.9c0,2.7-2.2,4.9-4.9,4.9s-4.9-2.2-4.9-4.9
		C52.2,10.1,54.4,7.9,57.1,7.9L57.1,7.9z M57.1,11c1,0,1.8,0.8,1.8,1.8c0,1-0.8,1.8-1.8,1.8c-1,0-1.8-0.8-1.8-1.8
		C55.3,11.8,56.1,11,57.1,11L57.1,11z M34.9,30.2c2.7,0,4.9,2.2,4.9,4.9c0,2.7-2.2,4.9-4.9,4.9c-2.7,0-4.9-2.2-4.9-4.9
		C30,32.4,32.2,30.2,34.9,30.2L34.9,30.2z M34.9,33.3c1,0,1.8,0.8,1.8,1.8c0,1-0.8,1.8-1.8,1.8c-1,0-1.8-0.8-1.8-1.8
		C33.1,34.1,33.9,33.3,34.9,33.3L34.9,33.3z M34.9,7.9c2.7,0,4.9,2.2,4.9,4.9c0,2.7-2.2,4.9-4.9,4.9c-2.7,0-4.9-2.2-4.9-4.9
		C30,10.1,32.2,7.9,34.9,7.9L34.9,7.9z M34.9,11c1,0,1.8,0.8,1.8,1.8c0,1-0.8,1.8-1.8,1.8c-1,0-1.8-0.8-1.8-1.8
		C33.1,11.8,33.9,11,34.9,11L34.9,11z M12.7,30.2c2.7,0,4.9,2.2,4.9,4.9c0,2.7-2.2,4.9-4.9,4.9c-2.7,0-4.9-2.2-4.9-4.9
		C7.8,32.4,10,30.2,12.7,30.2L12.7,30.2z M12.7,33.3c1,0,1.8,0.8,1.8,1.8c0,1-0.8,1.8-1.8,1.8c-1,0-1.8-0.8-1.8-1.8
		C10.9,34.1,11.7,33.3,12.7,33.3L12.7,33.3z M12.7,7.9c2.7,0,4.9,2.2,4.9,4.9c0,2.7-2.2,4.9-4.9,4.9c-2.7,0-4.9-2.2-4.9-4.9
		C7.8,10.1,10,7.9,12.7,7.9L12.7,7.9z M12.7,11c1,0,1.8,0.8,1.8,1.8c0,1-0.8,1.8-1.8,1.8c-1,0-1.8-0.8-1.8-1.8
		C10.9,11.8,11.7,11,12.7,11z"/>
	<path class="st3" d="M199.3,10.7V0.4h3.4V8h2.9V0.4h3.4V8h2.9V0.4h3.4v10.3H199.3L199.3,10.7z M218,10.7V0.4h3.4v4.4h0.1l3.4-4.4
		h4.1l-4,4.8l4.2,5.5H225L221.5,6h-0.1v4.6H218L218,10.7z M235,11c-1.6,0-2.9-0.5-4-1.5c-1.1-1-1.7-2.3-1.7-4c0-1.6,0.6-3,1.7-3.9
		c1.1-1,2.4-1.5,4-1.5c1.6,0,3,0.5,4.1,1.5c1.1,1,1.7,2.3,1.7,3.9c0,1.6-0.6,3-1.7,4C238,10.5,236.6,11,235,11L235,11z M233.3,7.3
		c0.4,0.5,1,0.8,1.8,0.8c0.8,0,1.4-0.3,1.8-0.8c0.4-0.5,0.7-1.2,0.7-1.9c0-0.7-0.2-1.3-0.7-1.8c-0.4-0.5-1-0.8-1.8-0.8
		s-1.3,0.3-1.8,0.8c-0.4,0.5-0.6,1.1-0.6,1.8C232.6,6.2,232.8,6.8,233.3,7.3L233.3,7.3z M243.3,10.8c-0.9,0-1.5-0.1-1.9-0.2l0.2-2.6
		c0.2,0.1,0.4,0.1,0.6,0.1c0.6,0,1-0.3,1.3-0.8c0.3-0.6,0.4-1.6,0.4-3.1V0.4h9.2v10.3h-3.4V3h-2.5v1.8c0,2.2-0.3,3.7-1,4.6
		C245.6,10.3,244.6,10.8,243.3,10.8L243.3,10.8z M259,10.9c-0.6,0-1.2-0.1-1.7-0.3c-0.5-0.2-1-0.5-1.4-1c-0.4-0.5-0.6-1.1-0.6-1.9
		c0-2.3,2.2-3.5,6.6-3.5V4.1c0-0.5-0.2-0.9-0.5-1.1c-0.3-0.3-0.8-0.4-1.3-0.4c-0.9,0-1.8,0.4-2.5,1.1l-1.7-1.8
		c1.2-1.2,2.8-1.7,4.6-1.7c1.7,0,2.9,0.4,3.6,1.3c0.7,0.9,1.1,2.2,1.1,4.1v5.2h-3.1V9.6h-0.1c-0.2,0.4-0.6,0.7-1.2,1
		C260.2,10.8,259.6,10.9,259,10.9L259,10.9z M259.8,8.6c0.7,0,1.2-0.2,1.6-0.6c0.4-0.4,0.6-0.9,0.6-1.5V6.2h-0.4
		c-2.1,0-3.2,0.5-3.2,1.4c0,0.4,0.1,0.6,0.4,0.8C259.1,8.6,259.4,8.6,259.8,8.6L259.8,8.6z M208.2,31.7v-2.6h-8.9V18.8h3.4v7.7h3.4
		v-7.7h3.4v7.7h1.4v5.2H208.2L208.2,31.7z M212.6,29.1V18.8h3.3v6h0l3.6-6h3.6v10.3h-3.3v-5.8h-0.1l-3.5,5.8H212.6L212.6,29.1z
		 M231.4,34v-4.6c-1.9,0-3.4-0.5-4.5-1.5c-1.1-1-1.6-2.3-1.6-4c0-1.7,0.5-3,1.6-3.9c1.1-1,2.6-1.5,4.5-1.5v-5h3.4v5
		c1.9,0,3.4,0.5,4.5,1.5c1.1,1,1.6,2.3,1.6,3.9c0,1.7-0.5,3-1.6,4c-1.1,1-2.6,1.5-4.5,1.5V34H231.4L231.4,34z M231.4,26.6v-5.3
		c-0.9,0-1.5,0.3-2,0.8c-0.4,0.5-0.7,1.1-0.7,1.9c0,0.8,0.2,1.4,0.7,1.9C229.8,26.3,230.5,26.6,231.4,26.6L231.4,26.6z M234.8,26.6
		c0.9,0,1.6-0.3,2-0.8c0.4-0.5,0.7-1.1,0.7-1.9c0-0.8-0.2-1.4-0.7-1.9c-0.4-0.5-1.1-0.7-2-0.8V26.6L234.8,26.6z M243,34V18.8h3.2
		v1.3h0.1c0.3-0.5,0.8-0.8,1.4-1.1c0.6-0.3,1.2-0.4,1.9-0.4c1.4,0,2.6,0.5,3.5,1.6c0.9,1.1,1.4,2.3,1.4,3.8c0,1.5-0.4,2.8-1.3,3.9
		c-0.9,1.1-2.1,1.6-3.6,1.6c-0.6,0-1.2-0.1-1.8-0.4c-0.6-0.3-1-0.6-1.3-1h0V34H243L243,34z M248.7,26.6c0.8,0,1.3-0.3,1.8-0.8
		c0.4-0.5,0.6-1.1,0.6-1.9c0-0.7-0.2-1.3-0.6-1.8c-0.4-0.5-1-0.8-1.8-0.8c-0.7,0-1.3,0.3-1.8,0.8c-0.5,0.5-0.7,1.1-0.7,1.8
		c0,0.7,0.2,1.3,0.7,1.8C247.4,26.3,248,26.6,248.7,26.6L248.7,26.6z M261.7,29.4c-1.6,0-2.9-0.5-4-1.5c-1.1-1-1.7-2.3-1.7-4
		c0-1.6,0.6-3,1.7-3.9c1.1-1,2.5-1.5,4-1.5c1.6,0,3,0.5,4.1,1.5c1.1,1,1.7,2.3,1.7,3.9c0,1.6-0.6,3-1.7,4
		C264.7,28.9,263.3,29.4,261.7,29.4L261.7,29.4z M260,25.8c0.4,0.5,1,0.8,1.8,0.8c0.8,0,1.4-0.3,1.8-0.8c0.4-0.5,0.7-1.2,0.7-1.9
		c0-0.7-0.2-1.3-0.7-1.8s-1-0.8-1.8-0.8s-1.3,0.3-1.8,0.8c-0.4,0.5-0.6,1.1-0.6,1.8C259.3,24.6,259.5,25.2,260,25.8L260,25.8z
		 M269.6,29.1V18.8h5.7c2.5,0,3.8,0.9,3.8,2.7c0,0.5-0.1,1-0.4,1.4c-0.3,0.4-0.7,0.7-1.2,0.8v0c0.6,0.1,1.1,0.4,1.5,0.8
		c0.4,0.4,0.6,1,0.6,1.6c0,1-0.4,1.7-1.1,2.2c-0.7,0.5-1.7,0.7-2.8,0.7H269.6L269.6,29.1z M272.9,27h1.7c0.5,0,0.8-0.1,1.1-0.3
		s0.4-0.5,0.4-0.9c0-0.8-0.5-1.1-1.6-1.1h-1.6V27L272.9,27z M272.9,23h1.7c0.4,0,0.7-0.1,0.9-0.3c0.3-0.2,0.4-0.4,0.4-0.8
		c0-0.7-0.5-1-1.4-1h-1.5V23L272.9,23z M281.7,29.1V18.8h3.4v3.4h2.1c1.3,0,2.3,0.3,3.1,0.8c0.8,0.6,1.2,1.4,1.2,2.6
		c0,1.2-0.4,2-1.2,2.6c-0.8,0.6-1.8,0.9-3.1,0.9H281.7L281.7,29.1z M285.1,26.9h1.4c1,0,1.5-0.4,1.5-1.3c0-0.8-0.5-1.2-1.5-1.2h-1.4
		V26.9L285.1,26.9z M292.8,29.1V18.8h3.4v10.3H292.8L292.8,29.1z M297.5,29.1l4.1-5.4l-3.7-4.9h3.9l1.9,2.7l1.9-2.7h3.8l-3.7,4.9
		l4.1,5.4h-4l-2.2-3.2l-2.3,3.2H297.5L297.5,29.1z M201.5,47.5v-7.7h-3.1v-2.6h9.6v2.6h-3.1v7.7H201.5L201.5,47.5z M214.4,47.8
		c-1.6,0-3-0.5-4-1.5c-1.1-1-1.6-2.3-1.6-4c0-1.7,0.5-3,1.6-4c1.1-1,2.4-1.5,4-1.5c1.5,0,2.8,0.5,3.7,1.5c0.9,1,1.4,2.4,1.4,4.1
		c0,0.4,0,0.6,0,0.8H212c0.1,0.6,0.3,1,0.8,1.4c0.5,0.4,1,0.6,1.7,0.6c1,0,1.7-0.4,2.3-1.1l2.4,1.5
		C218.1,47.1,216.5,47.8,214.4,47.8L214.4,47.8z M212,41.2h4.4c0-0.6-0.2-1-0.5-1.4c-0.4-0.4-0.9-0.6-1.5-0.6
		c-0.6,0-1.2,0.2-1.6,0.6C212.3,40.2,212.1,40.6,212,41.2L212,41.2z M219.8,47.5l4.1-5.4l-3.7-4.9h3.9L226,40l1.9-2.7h3.8l-3.7,4.9
		l4.1,5.4h-4l-2.2-3.2l-2.3,3.2H219.8L219.8,47.5z M233.4,47.5V37.2h3.4v3.6h3.3v-3.6h3.4v10.3h-3.4v-4h-3.3v4H233.4L233.4,47.5z
		 M251.4,47.8c-1.6,0-2.9-0.5-4-1.5c-1.1-1-1.7-2.3-1.7-4c0-1.6,0.6-3,1.7-3.9c1.1-1,2.4-1.5,4-1.5c1.6,0,3,0.5,4.1,1.5
		c1.1,1,1.7,2.3,1.7,3.9c0,1.6-0.6,3-1.7,4C254.4,47.3,253,47.8,251.4,47.8L251.4,47.8z M249.6,44.2c0.4,0.5,1,0.8,1.8,0.8
		c0.8,0,1.4-0.3,1.8-0.8c0.4-0.5,0.7-1.2,0.7-1.9c0-0.7-0.2-1.3-0.7-1.8c-0.4-0.5-1-0.8-1.8-0.8c-0.8,0-1.3,0.3-1.8,0.8
		c-0.4,0.5-0.6,1.1-0.6,1.8C249,43,249.2,43.7,249.6,44.2L249.6,44.2z M259.7,47.6c-0.9,0-1.5-0.1-1.9-0.2l0.2-2.6
		c0.2,0.1,0.4,0.1,0.6,0.1c0.6,0,1-0.3,1.3-0.8c0.3-0.6,0.4-1.6,0.4-3.1v-3.8h9.2v10.3h-3.4v-7.7h-2.5v1.8c0,2.2-0.3,3.7-1,4.6
		C262,47.2,261,47.6,259.7,47.6L259.7,47.6z M277.4,47.8c-1.6,0-2.9-0.5-4-1.5c-1.1-1-1.7-2.3-1.7-4c0-1.6,0.6-3,1.7-3.9
		c1.1-1,2.5-1.5,4-1.5c1.6,0,3,0.5,4.1,1.5c1.1,1,1.7,2.3,1.7,3.9c0,1.6-0.6,3-1.7,4C280.4,47.3,279,47.8,277.4,47.8L277.4,47.8z
		 M275.7,44.2c0.4,0.5,1,0.8,1.8,0.8c0.8,0,1.4-0.3,1.8-0.8c0.4-0.5,0.7-1.2,0.7-1.9c0-0.7-0.2-1.3-0.7-1.8c-0.4-0.5-1-0.8-1.8-0.8
		c-0.8,0-1.3,0.3-1.8,0.8c-0.4,0.5-0.6,1.1-0.6,1.8C275,43,275.2,43.7,275.7,44.2L275.7,44.2z M285.3,47.5V37.2h7.5v2.6h-4.1v7.7
		H285.3L285.3,47.5z M294.6,47.5V37.2h3.3v6h0l3.6-6h3.6v10.3h-3.3v-5.8h-0.1l-3.5,5.8H294.6L294.6,47.5z M313,35.7
		c-2,0-3.1-0.9-3.4-2.7l1.7-0.3c0.1,0.8,0.7,1.2,1.8,1.2c1.1,0,1.6-0.4,1.7-1.2l1.7,0.3c-0.1,0.9-0.5,1.6-1.1,2
		C314.7,35.5,313.9,35.7,313,35.7L313,35.7z M307.7,47.5V37.2h3.3v6h0l3.6-6h3.6v10.3H315v-5.8h-0.1l-3.5,5.8H307.7z"/>
</g>
</svg>
